<svg version="1" xmlns="http://www.w3.org/2000/svg" width="4513.333" height="4513.333" viewBox="0 0 3385.000000 3385.000000"><path d="M2686 1021.1c-203.7 13.9-447.7 181.7-647.2 444.9-19.8 26.2-298.4 405.3-302.4 411.6-13 20.3-16.8 47.7-9.1 65.9 14.7 35.1 55.3 42 113.7 19.3 28.9-11.3 81.6-42.1 93.3-54.7 8.2-8.7 8.4-17.4.7-25.1-6.8-6.8-13.7-6.2-37 2.8-20.3 7.8-46.7 14.8-48.7 12.8-.9-.8 3.3-8.6 9.2-17.1 7.4-10.7 291.4-393.4 305.4-411.5 33-42.8 63-78.7 99-118.4 18-19.9 73.8-76 92.5-93 113.3-103.3 224.3-168 316.3-184.7 11-2 46.2-3.9 51.8-2.7 1.3.2-5.5 4.1-19.5 10.9-82.1 40.3-163.2 97.1-246.5 172.7-8.8 8-29.5 28.1-46 44.6-59.2 59.3-107.2 115.5-161.6 189.1-39.8 53.8-280.7 381.6-284.1 386.6-12.3 18.1-17.6 42.6-13 60.7 4.7 18.4 15.5 30.1 34.1 37 9.2 3.4 26.8 4.1 41.2 1.7 31.7-5.3 72.2-23.4 114.4-51.3 13.9-9.2 21.8-15.9 24.2-20.5 3.9-7.7.3-18.4-7.7-22.5-6.2-3.2-11.9-2.4-27.8 3.7-29.2 11.2-54.2 17.6-54.2 13.8 0-.7 2.2-4.9 4.9-9.2 5.9-9.6 289.1-391.8 315.3-425.5 45.6-58.6 86.2-105.2 134.8-154.4 74.3-75.2 140.4-128.8 211.1-171.1 17-10.1 59.3-32.5 61.6-32.5.4 0 2.8 2.9 5.1 6.4 17.7 26 15 70.1-7 112.8-25.7 50-75.1 97-165.7 157.3-15.2 10.1-30.2 20.6-33.3 23.4-10.5 9.4-11.2 18.5-2.2 27.9l4.3 4.5 8.8-.6c10.1-.6 16.8-2.7 56.3-17.4 148.4-55.3 235.9-125.5 260.4-208.8 4.8-16.7 6.6-29.7 6.6-48.5.1-32-9.2-54.9-31.7-78.1l-9.3-9.5 7.8-1.3c11.3-1.9 42.3-2.6 54-1.1 51.3 6.3 82.3 28.8 89.2 64.8 1.8 8.9.7 35.2-1.8 46.2-8.4 36.1-30.1 71.8-65.2 107.1-30.2 30.4-63.1 56.3-117.4 92.3-14.4 9.6-28.5 19.5-31.4 22.1-9.7 8.7-11.2 15.6-5.6 25.2 6.5 11.1 15.7 10.2 59.3-5.6 70.1-25.5 118.4-48.9 161.5-78.1 57.1-38.7 94.1-82.2 109.6-128.9 7-20.9 8.4-29.8 8.4-53.6.1-19.9-.1-21.5-2.6-30.8-5.6-19.9-14-33.9-29.8-49.8-35-35.1-96.9-57.2-173.7-62.1-36.6-2.3-82.5 2.5-125.4 13l-11.6 2.9-7.9-2.4c-10.7-3.1-39.3-8.9-53.4-10.7-25-3.4-50.4-4.2-75-2.5zM1172.6 1140.6c-.3.9-.6 4-.6 6.9 0 8.2.3 8.5 7.6 8.5h6.4v106h-6.4c-7.3 0-7.6.3-7.6 8.5 0 9.3-3.6 8.5 38.9 8.5 41.5 0 44.3-.3 55.3-6.2 7.3-3.9 17.2-14.2 21.6-22.5 12.8-24.1 13.4-57.7 1.5-80.6-4.7-9-15.4-20-23.9-24.5-11-5.7-15-6.2-55.5-6.2-32.5 0-36.8.2-37.3 1.6zm75.9 20.2c14.8 7.1 21.9 22.8 21.8 48.2-.1 24.9-7.3 41.8-20.5 48.4-5 2.5-5.9 2.6-22 2.6H1211v-102h15.8c15.2 0 15.9.1 21.7 2.8zM1794.3 1140.7c-.9 2.4-1 11.4-.1 13.5.6 1.4 2 1.8 6.8 1.8h6v105.9l-6.2.3-6.2.3-.8 3.9c-.5 2.2-.5 5.8 0 8l.8 4.1h41.9c41.3 0 42.1 0 47.6-2.3 16.8-6.7 24.6-17.5 25.6-35.3.9-15-4-25.7-15.4-33.5l-6-4.1 4.7-4.9c8.8-9.3 12-24.7 7.6-37.4-2.6-7.4-10.9-15.7-19.1-19-6-2.5-6.2-2.5-46.3-2.8-38-.3-40.3-.2-40.9 1.5zm74.6 19.3c6.1 3.4 8.4 7.5 8.4 15.5 0 8.8-3 14.6-9.1 18.3-4.5 2.6-5.4 2.7-20.4 3.1l-15.8.3v-40.4l16.3.4c15 .3 16.5.5 20.6 2.8zm1.1 57c11.4 4.1 16.7 14.2 14 26.5-1.5 6.8-5.1 12-10.3 14.7-3.8 2.1-5.8 2.3-22.9 2.6l-18.8.4v-46.5l17.3.6c10 .2 18.7 1 20.7 1.7zM1558.5 1149.8l-11 5.7-.3 11.7-.3 11.7-6.2.3-6.2.3-.9 3.6c-.5 2-.6 5.7-.2 8.2l.7 4.7h12.8l.3 33.2c.3 32.7.3 33.4 2.7 38 2.9 6 7.9 10.4 13.3 11.9 6.2 1.6 18.6 1.3 25.7-.6l6.1-1.8v-8.3c0-4.6-.1-8.4-.2-8.4-.2 0-2.5.7-5.2 1.5-7.3 2.2-12 1.9-15.3-.9l-2.8-2.4-.3-31.1-.3-31.1h10c11.3 0 11.3 0 11.3-8.5s0-8.5-11.3-8.5h-9.9v-17.5c0-9.6-.3-17.5-.7-17.5-.5.1-5.7 2.6-11.8 5.8zM1357.5 1178.8c-3.8 1-10.3 3.3-14.2 5.1l-7.3 3.4v9.3c0 5.2.1 9.4.3 9.4.1 0 4.5-2.2 9.7-4.9 11.9-6 21-8 29.6-6.2 3.2.6 6.8 1.8 8.2 2.7 3 2 6.1 8.8 6.2 13.6 0 4.3.8 4.1-18.7 5.8-21.7 1.8-34.8 7.8-40.2 18.5-2.1 4-2.7 6.7-2.9 14.1-.5 11.6 1.7 17.3 9.1 23.9 12.8 11.6 37.6 11.3 50.9-.4l3.7-3.2.3 4.3.3 4.3 16.2.3 16.2.2.7-3.5c.3-1.9.3-5.5 0-8l-.7-4.5h-10.7l-.4-30.3c-.4-25.6-.7-30.9-2.2-34.9-2.6-7-9.3-13.9-16.8-17.3-5.6-2.6-7.6-2.9-18.3-3.2-9-.2-13.7.2-19 1.5zm32.5 62.2c0 6-.5 10.1-1.4 11.9-4.9 9.4-20.6 14.9-29.6 10.3-10.9-5.4-10.3-21.4 1-26.9 4.2-2.1 15.1-3.8 25.8-4.2l4.2-.1v9zM1645.8 1178.6c-8.1 1.9-12.7 4.5-17.7 9.9-5.7 6.2-7.4 10.5-7.5 19.5-.1 6.5.3 8.1 2.7 12.2 4.8 8.2 11.6 11.9 31 16.9 20.5 5.3 25.7 8.8 25.7 17.1 0 7.7-7 11.3-20.2 10.6-13.6-.7-22.9-7.1-24.6-16.9-.7-4.2-1-4.4-5-5.3-2.5-.5-5.5-.5-7.5 0l-3.2 1v34.9l3.8.9c2.3.6 5.1.6 7.5 0 3-.7 3.8-1.4 4-3.7.2-1.5.6-2.7.9-2.7.3 0 3.8 1.6 7.8 3.6 8.3 4.1 17.3 5.4 29.2 4.2 14-1.5 23.1-6.7 27.7-16 3.6-7.2 3.7-18.9.2-26.3-4.6-10-11.6-14-34.6-19.9-16.2-4.2-21.3-6.6-23-10.7-2.7-6.5 2.1-12.9 11.2-14.8 14.1-3.1 27.8 5 27.8 16.4 0 2 .7 2.6 3.9 3.5 2.3.6 5.5.7 7.7.2l3.9-.8.3-16.1.2-16.2-4.5-.6c-2.5-.4-6.1-.4-8-.1-3.1.6-3.5 1.1-3.5 3.7v2.9l-5.2-3.4c-8.5-5.6-19-7-31-4zM1971.1 1178.5c-3.5.8-9.9 3.1-14.2 5.1l-7.9 3.7v9.4c0 5.2.3 9.3.8 9.1l10.2-5.1c10.6-5.2 19-7.2 26.5-6.2 9.9 1.3 14.8 6 16.1 15.8.6 4.3.5 4.5-2.2 5-1.6.3-7.2.9-12.4 1.2-26.9 1.8-42.1 9.5-46.1 23.2-2.1 7.2-1.7 18.8.8 24.4 2.4 5.4 7.9 11.1 13.1 13.8 13.4 6.7 34.7 4.7 44.5-4.3 2-1.8 3.9-3.1 4.2-2.8.3.3.5 2.3.5 4.4v3.8l16.2-.2 16.2-.3.8-3.8c.4-2 .4-5.4 0-7.5l-.8-3.7-5.6-.3-5.7-.3-.3-31.2c-.3-30.4-.4-31.3-2.7-36.5-2.9-6.5-9.4-12.4-17-15.3-7.2-2.9-25.3-3.6-35-1.4zm31.9 62c0 10.2-1.4 14-6.6 18.4-9.9 8.1-25.3 7.8-30.5-.6-2.7-4.3-2.3-12.9.7-17.1 4.1-5.6 14.5-8.5 32.2-9.1l4.2-.1v8.5zM1447.6 1180.6c-.8 2.2-.7 11.7.2 13.1.4.6 3.2 1.3 6.2 1.5l5.5.3.3 33.7.2 33.8h-5.9c-6.7 0-7.1.4-7.1 8 0 8.6-1.9 8 26 8h24.8l.6-2.3c.3-1.2.6-3.8.6-5.7 0-7.6-.5-8-8.2-8h-6.9l.3-23.8c.3-22.2.4-24 2.5-27.8 2.7-5 7-8.8 11.9-10.4 3.5-1.2 12.3-.9 15.5.4 1.4.6 1.7-.7 2.5-9.5l.9-10.1-2.5-1c-1.4-.6-5.3-1.1-8.7-1.1-8.8.1-16.2 3.8-21.1 10.6l-3.7 5.2-.5-8-.5-8-16.1-.3c-14.1-.2-16.2 0-16.8 1.4zM2060.6 1180.2c-1.3 4-1.6 7.2-1 10.8l.7 4h11.7v67.9l-5.7.3c-5.7.3-5.7.3-6.5 3.8-.4 1.9-.5 5.4-.2 7.7l.6 4.3h50.6l.6-4.8c.4-2.6.3-6.1-.2-7.7-.8-2.9-1-3-7.5-3.3l-6.7-.3v-22.1c0-13.9.4-23.5 1.2-25.9 1.4-5 7.2-11.8 11.5-13.5 3.7-1.6 12-1.8 15.6-.5 3 1.2 3.2.5 4.3-11.6l.6-8.2-3.8-.7c-11.4-2.3-22.2 1.5-28.4 9.9l-3.5 4.7-.9-8-.8-8h-15.9c-11.9 0-16.1.3-16.3 1.2zM938.1 1230.6l-25.2 37.4h-18.3c-31.6 0-76.7 2.8-113.6 7.1-126.9 14.7-234.3 49.6-305.5 99.4-28.7 20.1-53 44.3-68.8 68.5-29 44.7-37 98.2-21.6 145.3 11.1 34 33.3 62.8 68.4 89 15.3 11.4 20.5 14.1 27.1 14.1 4.1 0 5.9-.5 8.9-2.8 8.6-6.6 9.7-13.9 3.9-27.6-11.4-26.9-13.7-35.5-15.5-57.5-2.6-31.7 2.1-66.9 12.6-95 28.5-76.4 105.1-132.3 221-161.3 40.2-10.1 90.4-17.7 129.8-19.7 5.9-.3 15.5-.8 21.3-1.1 9.6-.5 10.6-.4 10 1.1-.3.9-48.2 72.8-106.5 159.8l-105.9 158.2-22.6 12.5c-12.4 6.9-22.5 12.7-22.5 13-.1.8 54.9 37.5 56.2 37.5.8 0 2.2-8.2 4.3-25.5l3.1-25.5L788.9 1493c60.6-90.5 110.6-164.9 111.1-165.4.9-.9 33.5.9 44 2.5 41.1 6.3 75.3 21.3 96.5 42.3 15.4 15.4 25.6 34.2 30 55.4 6.8 32.5 1.7 66.1-15 99.9-35.5 71.9-117.8 133.6-213 159.6-34.3 9.4-62.7 13.4-104.5 14.7-32.6 1-37.5 1.8-42.5 7-2.5 2.7-3 4-3.3 9.8l-.4 6.8L806 1914.1c62.8 103.6 119.9 197.6 126.8 208.9 22.6 36.9 27.6 43.6 35.8 47.6 5.3 2.6 5.9 2.7 10.3 1.5 9.3-2.5 14.1-8.5 14.1-17.8-.1-13.8.8-11.5-119.1-335.7-12.6-34.1-22.7-62.1-22.5-62.3.2-.3 2.2-.6 4.3-.9 2.1-.2 10.8-1.1 19.3-2 122.7-12.6 225.4-64.1 284-142.5 41.1-54.9 56-119.1 41.5-178.6-17.2-70.8-70.1-120.9-154.5-146.2-25.5-7.7-55.2-13.3-80-15.1-8-.5-17.3-1.3-20.7-1.6l-6.2-.6 20.9-31.3c11.6-17.3 21-31.6 21-31.9 0-.3-4-3.2-8.9-6.5l-8.9-6-25.1 37.5zM1844 1448.3c-25.2 7.1-51 22.7-71.5 43.4-21.5 21.8-30 43.6-25.1 64.4 4.4 18.8 20.8 27.4 42.6 22.4 33-7.7 75.6-40.8 90.5-70.5 19.5-38.7.4-69.9-36.5-59.7z"/><path d="M1386 1589.6c-1.9.2-7.8.9-13 1.5-36.1 4.1-79.5 18.6-118.5 39.6-101 54.5-180.7 147.2-198.5 230.8-2.8 12.8-3.8 38.3-2 49.3 5.2 32.8 28.1 57.5 59 63.8 10.1 2 33.2 1.5 47.5-1 26.6-4.8 57-16.9 80.8-32.2 3.7-2.4 6.9-4.4 7.2-4.4.2 0-2.3 5.5-5.5 12.2-10.7 22.6-18.4 46.7-21.5 67.6-2.2 13.9-2 35.5.4 46.7 8.8 42.3 40.9 78.4 85 95.6 25.5 10 50.8 13.6 83.9 11.9 104.9-5.4 196.9-52.7 249.6-128.3 15.8-22.7 17.4-34.8 5.7-43.1-3.2-2.3-5.2-3-8.9-3-7.7.1-13.5 3.9-29.9 19.6-8.1 7.8-19.2 17.6-24.5 21.9-43.6 34.8-93.7 58.2-144.3 67.4-12.1 2.2-42.4 3.1-54 1.6-30.5-4-52.4-15.2-63.7-32.5-5.7-8.8-8-17.1-8.1-29.1 0-8.7.4-11.2 3.1-19.3 13.4-39.3 75.2-132 198.9-298 11.1-14.9 20.9-28.5 21.7-30 2.2-4.3 2.9-11.6 1.6-17-1-4.5-.9-5.5 1.4-11 3-7.1 3.3-12 1-16.5-2.4-4.5-20.5-22.9-29.4-29.6-22.4-17.1-48.8-28.2-77.1-32.6-10-1.5-40.7-2.8-47.9-1.9zm58.4 63.5c17.9 1.4 19.6 2 12.5 4.3-25.7 8.4-53.6 33.2-95.4 84.7-59.3 73.1-95.4 111.7-125 133.5-20.2 14.9-40 21.1-49.3 15.4-7.6-4.6-10.6-18.8-8.3-38.6 6.1-51.8 41.2-105.9 94.6-145.8 46-34.4 98.4-53.7 148.4-54.5 4.7 0 14.8.4 22.5 1zM2415.3 1590.1c-34.5 4-66.2 17.3-107.5 45.1-22.8 15.3-29.8 22.7-29.8 31.3 0 7.1 6.5 15.6 13.1 17 5.2 1.2 11.4-.3 35.9-8.5 22.2-7.5 36.3-11 37.8-9.6 1 1.1-2.5 9.4-7.6 18.1-2.5 4.4-26.3 36.8-52.7 72-26.5 35.2-50.5 67.8-53.4 72.5-7.4 11.9-15.3 28.6-19.4 41.1-11.1 33.1-8.9 63 6.1 82.8 7.8 10.3 19.6 18.1 33.3 21.8 8.9 2.5 33.4 2.5 43.6 0 35.6-8.6 76.5-29.5 125.3-64.2 14.7-10.4 14.9-10.5 12-6.4-7.2 10-122.8 165.4-131.3 176.4-101.5 131-204.1 237.4-293 303.8-80.6 60.4-151.6 91.5-220.2 96.7-24.4 1.9-44.6-.6-69.3-8.5-19.4-6.1-26.6-5.8-32 1.4-6.6 8.9-4.8 17.7 5.8 28 24.6 24.2 79.3 32.9 145 23 105.5-15.8 223.6-78.5 347.5-184.5 67.6-57.8 137.7-129.5 202-206.9 23.2-27.8 37.2-46.2 97.5-127 31.6-42.4 107.8-144.5 169.3-227 61.6-82.5 113.2-152.2 114.8-155 4.3-7.4 5.4-12.1 4-17.3-4.5-17-19.8-18.6-55.7-5.7-46.7 16.9-81.8 41.8-126.9 90-70.3 75.1-157 147.7-219.2 183.3-18.8 10.7-37.3 18.2-45 18.2-2.1 0-2.3-.4-2.3-5.5 0-8.6 5.2-20.9 15.3-35.8 2.1-3.2 25.1-33.6 51-67.5s50.4-66.7 54.5-72.7c12.9-19.2 21.6-39.1 24.7-56.9 2.7-15.7 1.3-27.6-4.7-38.8-10.8-20.3-34-28.7-68.5-24.7z"/><path d="M1804.5 1592.4c-2.7 1.3-9.3 5.4-14.5 9.1-29.3 20.9-53.3 31.9-79.9 36.6-8.4 1.5-18.4 2.3-36.1 2.8-26.9.8-29.5 1.3-34.3 7-3.2 3.9-5.1 10.2-4.2 14.4.4 1.8 2.3 6.7 4.2 11 4 9 4 12-.1 21.9-4.3 10.5-11.6 20.7-72.1 101.3-67.7 90.1-67 89-71 111.9-1.9 11-1.9 16.2 0 25 6.8 32.1 36.8 48.1 77.1 41.1 30.6-5.3 70-23.1 106.9-48.3 28.5-19.4 32.6-25.7 25.1-38.6-5.2-9-11.6-9.5-31.3-2.5-30.7 10.8-53.3 16.4-53.3 13.1 0-3.4 24.1-36.3 106-144.7 51.9-68.8 95.9-127 97.8-129.5 1.9-2.5 4.4-6.5 5.4-9 3.9-8.9.6-19.5-7.2-23.5-4.4-2.3-12.6-1.9-18.5.9zM593.6 1702c-1.5 2.3-2.6 4.3-2.4 4.4 1.1.8 55.5 37.4 56.5 38 .7.4 2.4-1.1 4.2-3.8l3.1-4.5-28.2-18.7c-15.6-10.2-28.8-18.8-29.4-19.1-.6-.2-2.3 1.5-3.8 3.7zM569.6 1738.1c-1.5 2.3-2.4 4.5-1.9 4.9 1.6 1.4 56.2 38 56.7 38 .3 0 1.9-2 3.5-4.4l3-4.4-28.6-18.8c-15.8-10.4-28.9-19-29.3-19.2-.4-.1-1.9 1.6-3.4 3.9zM545.5 1773.7c-1.4 2.1-2.5 4.1-2.5 4.5 0 .7 54 37.5 56.4 38.4 1.1.4 6.6-6.3 6.6-8.1 0-.5-56.6-38.5-57.5-38.5-.2 0-1.6 1.7-3 3.7zM521.1 1810.3l-3 4.4 28.5 19.1c15.6 10.6 28.8 19.2 29.3 19.2 1.4 0 6.4-8.2 5.4-9-.7-.7-53.3-35.7-56-37.3-.7-.5-2.3.9-4.2 3.6zM497 1846.5l-3.1 4.4 15.3 10.2c8.4 5.6 21.5 14.4 29 19.6l13.7 9.3 3.1-4.5c1.8-2.6 3-4.8 2.8-4.9-.1-.2-13.2-8.9-29-19.4l-28.7-19.2-3.1 4.5zM2818.5 1910.1c-50.4 4.8-98.1 23.9-140 55.8-11.3 8.6-35.1 31.9-44.2 43.1-36.7 45.7-57.4 99.8-60.2 157.5-3.8 76.6 23.4 148.9 76.9 203.8 41.3 42.6 94.7 69.8 155 79.2 14.1 2.2 49.3 3.1 64.2 1.6 35-3.4 63.8-11.6 95.3-27.1 112.6-55.4 171.9-179.4 144.9-303-17.4-79.4-72-148.5-145.9-184.5-30.6-14.9-59.5-23.1-93.4-26.5-11.7-1.1-40.5-1.1-52.6.1zm55.6 45.6l2.5.8-1.6 10.5c-.9 5.8-3.2 19.7-4.9 31l-3.3 20.5h-21.4c-20.7 0-21.5-.1-21.9-2-1.4-6.1-9.6-59.8-9.2-60.2 2.1-2.1 53.3-2.6 59.8-.6zm-63.2 32.9c2.8 17 4.7 31.2 4.3 31.5-.4.3-4.5 1.5-9.2 2.6-4.7 1.1-12.8 3.7-18 5.8-5.2 2-10.4 3.9-11.5 4.1-1.7.4-3.9-3.3-16.3-27.6-7.9-15.5-14.2-28.3-14-28.5 1.3-1.3 23.9-10.1 32.1-12.6 9.3-2.8 26.9-6.9 27.4-6.5.2.1 2.5 14.2 5.2 31.2zm101.6-24.5c12.5 3.8 31.5 11.7 31.5 13.1 0 .6-6.4 13.4-14.1 28.5-11.1 21.5-14.5 27.4-15.8 27-.9-.3-6.3-2.3-12.1-4.5s-14.2-4.8-18.7-5.8c-6.3-1.4-8.3-2.3-8.3-3.5 0-2 8.9-58.9 9.5-60.6.5-1.4 13.1 1.2 28 5.8zm-159 45.3c13 25.9 13.9 27.8 12.1 28.9-9.2 5.8-19.2 12.9-25.3 18l-7.4 6.1-22.5-22.5-22.5-22.4 5.8-5.4c11.9-11.1 41.9-31.7 44.7-30.8.6.2 7.4 12.8 15.1 28.1zm207.4-23.9c14.9 9 41.1 29.2 41.1 31.9 0 .6-9.9 11-22 23.1-16.7 16.7-22.3 21.7-23.4 21-.7-.6-5.1-4.1-9.7-7.8s-11.8-8.9-15.9-11.4-7.7-4.7-7.9-4.9c-.6-.5 28.3-56.4 29.2-56.4.5 0 4.4 2 8.6 4.5zM2727 2068c0 .3-2.5 3.4-5.6 7-4.9 5.7-12.8 17-17.8 25.2l-1.6 2.8-8.3-4.1c-4.5-2.3-17.3-8.8-28.4-14.6l-20.3-10.5 2.7-4.6c8-13.9 20.4-30.9 30.2-41.5l4.5-4.8 22.3 22.3c12.3 12.3 22.3 22.5 22.3 22.8zm294.7-29.6c9.4 11.6 24.5 34.9 23.2 35.9-.8.7-56.3 28.7-56.4 28.4-1.9-3.9-16.7-24.7-20.3-28.7l-5.1-5.5 22.7-22.8 22.7-22.8 3.4 3.8c1.8 2.1 6.2 7.4 9.8 11.7zm-161.3 17.4c.4.6-9.6 66.2-12.9 84.9-.6 3.3-3.1 4.6-4 2-1.2-3.2-13.6-85.1-13.1-86.3.4-1.1 3.6-1.4 15-1.4 8 0 14.7.4 15 .8zm-38.4 2c0 .5 2.9 19.3 6.5 41.8 3.6 22.5 6.5 41.9 6.5 43 0 1.2-.7 2.4-1.5 2.7-1.1.5-6.3-9-20.9-37.6-10.7-21-19.7-38.9-20.1-39.8-.4-1.2 1.1-2.2 6.7-4.4 7-2.7 18.9-6.3 21.6-6.4.6-.1 1.2.3 1.2.7zm54.4.8c8.8 2.3 21.6 7.4 21.6 8.6 0 1.3-39.3 78.8-40 78.8-3.2 0-3-2.1 3.4-43.1 7.1-44.4 7.3-45.9 8.2-45.9.3 0 3.4.7 6.8 1.6zm-71.2 52.2c16.8 33 19.7 39.3 18.3 39.8-1.3.5-9.4-7-32.9-30.5l-31.1-31.2 4.4-4c5.7-5.1 19.1-14.1 20.4-13.6.5.1 10 17.9 20.9 39.5zm110.3-34.3c4.4 3 9.8 7 12 8.9l4 3.5-31 31c-17 17.1-31.5 31.1-32.2 31.1-.6 0-1.5-.5-1.8-1-.8-1.3 38.6-79 40-79 .6 0 4.6 2.5 9 5.5zm-218.3 33.4c.4.4-1 5.2-3.2 10.7-2.1 5.5-5 14.4-6.4 19.8-1.4 5.4-2.7 10-2.9 10.3-.7.6-61-8.9-62-9.8-2-1.6 6.6-31.4 14.1-49.2l4.5-10.7 27.6 14.1c15.2 7.8 27.9 14.4 28.3 14.8zm358.6-13.1c5.4 13.4 12.5 38.8 12 42.5-.3 2-1.9 2.4-29.8 6.9-16.2 2.5-30.2 4.7-31.1 4.7-1.2.1-2-1.5-2.9-6.1-1.2-6.5-6.4-22.1-9.8-30l-2.1-4.7 28.2-14.4c22.9-11.6 28.4-14.1 29.3-13 .6.7 3.4 7.1 6.2 14.1zm-270.4 29.1c23.4 23.4 30.7 31.3 30.2 32.6-.4 1.1-1.2 1.5-2.4 1-.9-.3-18.9-9.4-40-20.1l-38.3-19.6 2.2-3.6c4.9-8.2 15.2-21.2 16.9-21.2.3 0 14.4 13.9 31.4 30.9zm157.3-24.7c7.7 9.6 12.8 17.7 11.7 18.8-.5.5-18.2 9.7-39.3 20.5-31.2 15.9-38.6 19.3-39.8 18.3-1.2-1 3.8-6.4 29.9-32.5 17.2-17.2 31.5-31.3 31.9-31.3.3 0 2.8 2.8 5.6 6.2zm-132.9 67.7c.3 2 0 2.2-3 1.6-1.8-.3-21.4-3.4-43.6-6.9-22.2-3.6-40.6-6.7-40.9-7-.8-.8 2.4-12.9 5.8-21.8l3.1-7.9 39.1 19.9c31.8 16.2 39.3 20.4 39.5 22.1zm151.8-36.2c2.6 5.8 7.7 23.4 7 24.1-.2.2-19.9 3.4-43.7 7.2-42.3 6.7-44.8 6.9-44.9 3.9 0-.5 77.4-40.6 78.8-40.8.2-.1 1.4 2.5 2.8 5.6zm-306.7 21.8c15.7 2.5 28.5 4.6 28.6 4.8.1.1-.1 4.9-.4 10.7-.4 5.8-.3 15.2 0 21 .3 5.8.5 10.6.3 10.8-.1.2-14.1 2.6-31 5.3-23.2 3.7-30.9 4.6-31.5 3.7-2.1-3.3-2.4-55.1-.4-60 .5-1.2 1.5-1.6 3.3-1.2 1.5.2 15.5 2.5 31.1 4.9zm415.5-1.3c1.4 9.9 1.8 34.8.7 46.3-.6 6.5-1.3 12.1-1.5 12.2-.3.3-55.5-8.1-60.1-9.2-1.9-.4-2-1.2-2-22V2159l3-.5c4.2-.8 56.7-9.3 58.1-9.4.6-.1 1.4 1.8 1.8 4.1zm-213.8 4.6c9.3 4.7 15.4 16.1 13.9 26-2 13.5-14 23.2-27.3 21.9-6.9-.6-10.9-2.4-15.8-7.4-5-4.9-7.4-10.6-7.4-17.5 0-11.4 6-19.9 17.5-24.5 4.3-1.8 14.3-1 19.1 1.5zm-91.6 14c38.7 6.2 42.5 7 42.8 8.8.3 1.8-2.5 2.4-43 8.7-23.8 3.7-43.6 6.8-43.9 6.7-2.3-.1-1.8-31 .5-31 .6 0 20.2 3.1 43.6 6.8zm205.5-3.4c.8 4.2.2 26.2-.7 27.1-.3.4-20.1-2.4-43.8-6.1-41.3-6.6-46.1-7.7-43.6-10.1.6-.6 81.2-13.9 85.8-14.2 1.2-.1 1.9.9 2.3 3.3zm-160.8 24.8c-.3.9-70.2 37.4-77.8 40.6-1.6.7-11-28-9.7-29.3 1-1.1 86.4-14.1 87.2-13.4.5.4.6 1.4.3 2.1zm117 4.3c22.6 3.6 41.4 6.5 41.8 6.5 1.2 0-3.7 17.1-7.1 24.7l-2.3 5.4-38.8-19.7c-21.3-10.8-39.2-20-39.6-20.4-1.5-1.3.4-4 2.7-3.5 1.1.3 20.6 3.4 43.3 7zm-110.9 5.6c.1.8-13.7 15.3-30.8 32.4l-31.1 31-4.4-4.8c-4.4-4.8-13.1-17.1-13.7-19.5-.3-1.3 76.9-41.4 78.7-40.8.6.1 1.1.9 1.3 1.7zm99.3 17.5c21.1 10.8 38.8 20 39.3 20.5 1 .9-7.5 14.1-13.8 21.4l-3.5 4-31.5-31.5c-24.3-24.2-31.3-31.7-30.4-32.7.6-.7 1.2-1.3 1.3-1.3.1 0 17.5 8.8 38.6 19.6zm-229.1-6.4c2.7 11.1 5.5 20 8.6 27.7 1.9 4.7 3.1 8.8 2.7 9.2-.5.4-13.2 7.1-28.4 14.9l-27.7 14.1-4.5-10.8c-2.5-6-5.9-15.2-7.6-20.6-3.4-10.7-7.4-27.7-6.7-28.4.4-.5 57.3-10 60.8-10.2 1.2-.1 2 1.1 2.8 4.1zm138.4-3.4c.7 1.1-38.8 78.5-40.2 79-1.5.5-13.8-7.7-19.9-13.3l-4.8-4.4 31-31c17-17.1 31.5-31.1 32.2-31.1.6 0 1.4.4 1.7.8zm75.8 29.9c17 17 30.8 31.1 30.8 31.5 0 2-24.2 19-25.3 17.8-1.9-1.9-39.7-78.2-39.2-79 .3-.5 1.2-1 1.8-1 .7 0 15 13.8 31.9 30.7zm134.5-26.2c35.6 5.6 33.3 5 33.3 7.8 0 7.5-14.3 51-18.4 56.1-.9 1.1-6-1.1-29.2-13l-28.1-14.4 4.2-10.5c2.4-5.8 5.3-15 6.6-20.5 1.3-5.5 2.4-10 2.6-10 .1 0 13.2 2 29 4.5zm-199.7 3.6c0 2.5-13.1 85.3-13.6 85.8-1 1.1-29.4-8.2-29.4-9.6 0-.3 9-18.2 20-39.8 15-29.3 20.5-39.3 21.5-38.8.8.3 1.5 1.4 1.5 2.4zm43.3 35.8c10.8 21.4 19.7 39.3 19.7 39.9 0 2-27.2 11.3-28.7 9.8-.4-.3-3.7-20-7.5-43.8-6.7-42.4-6.9-44.8-3.8-44.8.3 0 9.4 17.5 20.3 38.9zm-30.8-33.5c1.5 6.4 13.3 84.1 12.9 84.8-.3.4-7.2.8-15.5.8-14.4 0-14.9-.1-14.9-2.1 0-2.4 12.8-83.8 13.5-85.6.6-1.9 3.4-.4 4 2.1zm-138.3 49.1c3.7 5.5 9.1 12.9 12.2 16.5 3.1 3.6 5.6 6.7 5.6 7 0 .3-10.1 10.6-22.3 22.8l-22.4 22.4-5.7-6.4c-10.4-11.4-29.5-38.6-30.8-43.8-.3-1.2 55.4-30.2 56.3-29.2.3.4 3.5 5.2 7.1 10.7zm307.5 2.7c14.9 7.6 27.4 14.2 27.8 14.8 1.4 2.2-15.5 27.4-28.4 42.5l-7.5 8.6-22.8-22.8-22.8-22.8 3.4-3.5c5.2-5.4 13.9-17.1 18.2-24.4 2.1-3.7 4.1-6.5 4.4-6.3.3.1 12.7 6.4 27.7 13.9zm-276.7 32.4c5.4 4.6 17.4 13.1 25.6 18.1 1.8 1.1 1.1 2.8-12.1 28.9-7.7 15.3-14.5 27.9-15.1 28.1-2.8.9-31.4-18.6-44.2-30.3l-6.4-5.7 22.4-22.4c12.2-12.2 22.5-22.3 22.8-22.3.3 0 3.4 2.5 7 5.6zm240.2 16.1c12 12 21.8 22.3 21.8 22.9 0 1.4-13.2 12.7-24 20.6-8.3 6-24.1 15.8-25.7 15.8-1.5 0-29.8-56.3-28.5-56.8 2.8-.9 22.2-14.6 27.2-19.1 3-2.8 5.9-5 6.5-5.1.5 0 10.8 9.8 22.7 21.7zm-195.7 10.8c4.6 1.9 13.5 4.8 19.7 6.4 11.2 2.9 11.3 3 11 5.8-.5 4.6-9.2 59.7-9.5 59.9-.5.5-18-3.6-26.6-6.2-11.6-3.5-33.3-12.4-32.9-13.6 1.1-3.1 28.4-55.8 29-55.8.4 0 4.6 1.6 9.3 3.5zm145.4 23.9c7.8 15.1 14.1 27.9 14.1 28.4 0 3.1-43.3 17.9-56.5 19.4l-2.9.3-4.7-29.5c-2.6-16.2-4.8-30.5-4.8-31.6-.1-1.8.7-2.3 4.7-2.9 5.4-.8 26.6-7.6 30.9-9.9 1.5-.8 3.3-1.5 4-1.6.6 0 7.5 12.3 15.2 27.4zM2867 2343c0 .3 2.2 14.2 4.9 31s4.8 30.6 4.6 30.8c-.1.1-4 .7-8.6 1.2-14.7 1.7-51.4.8-53.5-1.3-.5-.4 8.1-58.1 9-61.2.3-1 43.6-1.5 43.6-.5z"/></svg>